<svg width="19" height="19" viewBox="0 0 19 19" fill="none" xmlns="http://www.w3.org/2000/svg">
<path d="M11.5564 9.49999L17.8272 3.24374C18.1018 2.96913 18.2561 2.59668 18.2561 2.20832C18.2561 1.81996 18.1018 1.44751 17.8272 1.1729C17.5526 0.898293 17.1802 0.744019 16.7918 0.744019C16.4035 0.744019 16.031 0.898293 15.7564 1.1729L9.50015 7.44374L3.2439 1.1729C2.9693 0.898293 2.59684 0.744019 2.20849 0.744019C1.82013 0.744019 1.44768 0.898293 1.17307 1.1729C0.898462 1.44751 0.744188 1.81996 0.744188 2.20832C0.744188 2.59668 0.898462 2.96913 1.17307 3.24374L7.4439 9.49999L1.17307 15.7562C1.03638 15.8918 0.927893 16.0531 0.853855 16.2308C0.779818 16.4085 0.741699 16.5991 0.741699 16.7917C0.741699 16.9842 0.779818 17.1748 0.853855 17.3525C0.927893 17.5302 1.03638 17.6915 1.17307 17.8271C1.30864 17.9638 1.46994 18.0722 1.64765 18.1463C1.82536 18.2203 2.01597 18.2584 2.20849 18.2584C2.40101 18.2584 2.59162 18.2203 2.76933 18.1463C2.94704 18.0722 3.10833 17.9638 3.2439 17.8271L9.50015 11.5562L15.7564 17.8271C15.892 17.9638 16.0533 18.0722 16.231 18.1463C16.4087 18.2203 16.5993 18.2584 16.7918 18.2584C16.9843 18.2584 17.1749 18.2203 17.3527 18.1463C17.5304 18.0722 17.6917 17.9638 17.8272 17.8271C17.9639 17.6915 18.0724 17.5302 18.1465 17.3525C18.2205 17.1748 18.2586 16.9842 18.2586 16.7917C18.2586 16.5991 18.2205 16.4085 18.1465 16.2308C18.0724 16.0531 17.9639 15.8918 17.8272 15.7562L11.5564 9.49999Z" fill="#293064"/>
</svg>
