<svg width="24" height="26" viewBox="0 0 24 26" fill="none" xmlns="http://www.w3.org/2000/svg">
    <g clip-path="url(#ok3q5ms1ga)">
        <path d="M11.943 0C7.783 0 4.274.218 3.75.507c-.915.296-1.603 2.264-1.605 4.6v1.16h-.25a.575.575 0 0 0-.1-.146.626.626 0 0 0 .167-.425v-.59a.512.512 0 0 0-.12-.383.568.568 0 0 0-.368-.196h-.98a.57.57 0 0 0-.37.198.514.514 0 0 0-.12.386V5.11v.59a.63.63 0 0 0 .167.425v-.001a.626.626 0 0 0-.168.425v2.91c-.002.016-.002.033-.002.051 0 .271.214.496.49.528h.982a.497.497 0 0 0 .255-.085.46.46 0 0 0 .167-.202v-.003h.25v5.224c0 .207.234.398.613.501v.678c-.541.066-.915.297-.915.562v5.806c-.038.72.18 1.43.62 2.018l-.007-.01v.998a.49.49 0 0 0 .503.477h2.055c.133 0 .26-.05.355-.14a.465.465 0 0 0 .147-.337v-.683h12.854v.683a.49.49 0 0 0 .503.477h2.055a.526.526 0 0 0 .355-.14.476.476 0 0 0 .148-.337v-.996a3.082 3.082 0 0 0 .612-2.015v.007-5.806c0-.265-.378-.495-.914-.561v-.679c.378-.103.611-.294.613-.501V9.75h.249a.48.48 0 0 0 .421.29h.977a.57.57 0 0 0 .37-.197.513.513 0 0 0 .12-.386v.002-2.91a.63.63 0 0 0-.167-.426l.001.001a.627.627 0 0 0 .167-.425v-.587a.511.511 0 0 0-.12-.384.568.568 0 0 0-.368-.195h-.982a.57.57 0 0 0-.37.197.514.514 0 0 0-.119.387v-.003.59a.63.63 0 0 0 .167.426l-.001-.002a.6.6 0 0 0-.1.142v.004h-.25V5.109c0-2.348-.695-4.325-1.616-4.605-.56-.288-4.052-.502-8.18-.502V0zM3.545 3.366h16.794c.296 0 .543.2.6.465l.001.003c.117.552.183 1.188.183 1.84v.04-.002V9.75c0 .32-.274.58-.613.58H3.372a.63.63 0 0 1-.433-.17.566.566 0 0 1-.18-.41V5.675c0-.652.067-1.287.194-1.903l-.01.062a.576.576 0 0 1 .212-.336.633.633 0 0 1 .389-.132h.002zm.744 12.768H5.6a.3.3 0 0 1 .305.274v.001l.218 3.772v.016c0 .16-.137.29-.306.29h-1.53a.315.315 0 0 1-.216-.085.283.283 0 0 1-.09-.205v-3.773c0-.16.138-.29.307-.29zm13.994 0h1.312c.17 0 .306.13.306.29v3.77c0 .16-.137.29-.306.29h-1.53a.315.315 0 0 1-.217-.085.283.283 0 0 1-.09-.206v-.016.001l.219-3.772a.3.3 0 0 1 .305-.27h.001v-.002zm-11.392.693h10.103a.15.15 0 0 1 .153.146v.173a.15.15 0 0 1-.153.145H6.891a.158.158 0 0 1-.108-.042.142.142 0 0 1-.045-.103v-.173a.15.15 0 0 1 .153-.146zm.06 1.045h9.981a.15.15 0 0 1 .153.145v.173a.15.15 0 0 1-.153.145h-9.98a.158.158 0 0 1-.109-.042.142.142 0 0 1-.044-.103v-.173a.15.15 0 0 1 .153-.145zm.062 1.044h9.859a.15.15 0 0 1 .153.145v.174a.15.15 0 0 1-.153.145H7.013a.156.156 0 0 1-.105-.04.141.141 0 0 1-.047-.099v-.173a.15.15 0 0 1 .154-.145l-.002-.007zm.062 1.044h9.735a.15.15 0 0 1 .153.146v.173a.15.15 0 0 1-.153.145H7.075a.158.158 0 0 1-.108-.042.142.142 0 0 1-.045-.103v-.173a.15.15 0 0 1 .153-.146z" fill="#fff"/>
    </g>
    <defs>
        <clipPath id="ok3q5ms1ga">
            <path fill="#fff" d="M0 0h24v26H0z"/>
        </clipPath>
    </defs>
</svg>
