<svg width="37" height="37" viewBox="0 0 37 37" fill="none" xmlns="http://www.w3.org/2000/svg">
<path d="M37 29.7744C37 30.6049 36.7093 31.3109 36.1279 31.8923L31.8923 36.1279C31.3109 36.7093 30.6049 37 29.7744 37C28.9439 37 28.2379 36.7093 27.6566 36.1279L18.5 26.9714L9.34343 36.1279C8.76206 36.7093 8.05612 37 7.22559 37C6.39506 37 5.68911 36.7093 5.10774 36.1279L0.872054 31.8923C0.290685 31.3109 0 30.6049 0 29.7744C0 28.9439 0.290685 28.2379 0.872054 27.6566L10.0286 18.5L0.872054 9.34343C0.290685 8.76206 0 8.05612 0 7.22559C0 6.39506 0.290685 5.68911 0.872054 5.10774L5.10774 0.872054C5.68911 0.290685 6.39506 0 7.22559 0C8.05612 0 8.76206 0.290685 9.34343 0.872054L18.5 10.0286L27.6566 0.872054C28.2379 0.290685 28.9439 0 29.7744 0C30.6049 0 31.3109 0.290685 31.8923 0.872054L36.1279 5.10774C36.7093 5.68911 37 6.39506 37 7.22559C37 8.05612 36.7093 8.76206 36.1279 9.34343L26.9714 18.5L36.1279 27.6566C36.7093 28.2379 37 28.9439 37 29.7744Z" fill="#FF0000" fill-opacity="0.5"/>
</svg>
