<svg width="24" height="24" viewBox="0 0 24 24" fill="none" xmlns="http://www.w3.org/2000/svg">
<path fill-rule="evenodd" clip-rule="evenodd" d="M1.40332 12C1.40332 9.18955 2.51977 6.49422 4.50705 4.50693C6.49434 2.51964 9.18967 1.4032 12.0001 1.4032C14.8106 1.4032 17.5059 2.51964 19.4932 4.50693C21.4805 6.49422 22.5969 9.18955 22.5969 12C22.5969 14.8104 21.4805 17.5058 19.4932 19.4931C17.5059 21.4804 14.8106 22.5968 12.0001 22.5968C9.18967 22.5968 6.49434 21.4804 4.50705 19.4931C2.51977 17.5058 1.40332 14.8104 1.40332 12ZM6.04972 5.1456C7.53308 3.85336 9.39756 3.08038 11.3601 2.944V10.4528L6.04972 5.1456ZM5.14572 6.0496C3.85348 7.53296 3.0805 9.39744 2.94412 11.36H10.4529L5.14572 6.0496ZM10.4545 12.64H2.94572C3.08165 14.6024 3.85406 16.4668 5.14572 17.9504L10.4545 12.64ZM6.04972 18.8544C7.53314 20.1465 9.39759 20.9195 11.3601 21.056V13.5456L6.04972 18.8544ZM12.6401 13.5456V21.0544C14.6019 20.918 16.4657 20.1456 17.9489 18.8544L12.6401 13.5456ZM18.8545 17.9488C20.1465 16.4659 20.9195 14.602 21.0561 12.64H13.5457L18.8545 17.9488ZM13.5457 11.36H21.0545C20.9185 9.39766 20.1461 7.53323 18.8545 6.0496L13.5457 11.36ZM17.9505 5.1456C16.4672 3.85336 14.6027 3.08038 12.6401 2.944V10.4528L17.9505 5.144V5.1456Z" fill="#293064"/>
</svg>
